<?xml version="1.0" encoding="UTF-8"?><svg id="a" xmlns="http://www.w3.org/2000/svg" viewBox="0 0 100 100"><defs><style>.b{fill:#eb1c23;}</style></defs><path class="b" d="m16.82,19.91h22.47c.58,0,.98.59.76,1.13l-22.47,55.08c-.34.83-1.58.59-1.58-.31V20.73c0-.45.37-.82.82-.82Z"/><path class="b" d="m60.24,19.91h22.94c.45,0,.82.37.82.82v55.16c0,.9-1.23,1.14-1.58.32l-22.94-55.16c-.22-.54.17-1.14.76-1.14Z"/><path class="b" d="m50.55,43.77l14.88,35.18c.23.54-.17,1.14-.76,1.14h-8.48c-.33,0-.63-.2-.76-.51l-4.39-10.72c-.13-.31-.43-.51-.76-.51h-9.78c-.58,0-.98-.58-.76-1.12l9.28-23.44c.27-.68,1.23-.69,1.52-.02Z"/></svg>