<?xml version="1.0" encoding="UTF-8"?><svg id="a" xmlns="http://www.w3.org/2000/svg" viewBox="0 0 100 100"><defs><style>.b{fill:#f24e1d;}.c{fill:#ff7062;}.d{fill:#a259ff;}.e{fill:#0ecf84;}.f{fill:#38bdf9;}</style></defs><circle class="f" cx="60" cy="50" r="10"/><path class="e" d="m50,70c0,5.52-4.48,10-10,10s-10-4.48-10-10,4.48-10,10-10h10v10Z"/><path class="d" d="m50,50v10s-6.69,0-10,0c-5.52,0-10-4.48-10-10s4.48-10,10-10h10v10Z"/><path class="b" d="m50,30v10s-6.69,0-10,0c-5.52,0-10-4.48-10-10s4.48-10,10-10h10v10Z"/><path class="c" d="m50,30v-10s6.69,0,10,0c5.52,0,10,4.48,10,10s-4.48,10-10,10h-10v-10Z"/></svg>