<?xml version="1.0" encoding="UTF-8"?><svg id="a" xmlns="http://www.w3.org/2000/svg" viewBox="0 0 100 100"><defs><style>.b{fill:#663297;}</style></defs><path class="b" d="m50,19.75c-16.71,0-30.25,13.54-30.25,30.25s13.54,30.25,30.25,30.25,30.25-13.54,30.25-30.25-13.54-30.25-30.25-30.25Zm-17.94,46.08c-6.33-6.33-5.63-15.48-5.63-15.48l23.1,23.22s-8.32,1.41-17.47-7.74Zm23.22,7.74l-28.14-28.84s-.35-11.61,16.18-17.59c15.69-5.68,26.03,8.44,26.03,8.44l-3.52,3.52s-6.68-10.2-17.59-8.44c-11.59,1.87-15.83,9.5-16.53,12.31l24.97,25.68s11.96-5.63,11.96-14.07h-9.85l-.17-4.51,14.97-.06s2.08,17.24-18.32,23.57Z"/></svg>