<?xml version="1.0" encoding="UTF-8"?><svg id="a" xmlns="http://www.w3.org/2000/svg" viewBox="0 0 100 100"><defs><style>.b{fill:#f7df1e;}.c{fill:#fff;}</style></defs><rect class="b" x="20.74" y="20.74" width="58.52" height="58.52" rx="1.22" ry="1.22"/><path class="c" d="m60.05,66.46c1.18,1.92,2.71,3.34,5.42,3.34,2.28,0,3.73-1.14,3.73-2.71,0-1.89-1.5-2.55-4-3.65l-1.37-.59c-3.97-1.69-6.6-3.81-6.6-8.29,0-4.12,3.14-7.26,8.05-7.26,3.5,0,6.01,1.22,7.82,4.4l-4.28,2.75c-.94-1.69-1.96-2.36-3.54-2.36s-2.63,1.02-2.63,2.36c0,1.65,1.02,2.32,3.38,3.34l1.37.59c4.67,2,7.31,4.05,7.31,8.64,0,4.95-3.89,7.66-9.11,7.66s-8.41-2.43-10.02-5.62l4.47-2.6Zm-19.42.48c.86,1.53,1.65,2.83,3.54,2.83s2.95-.71,2.95-3.46v-18.7h5.5v18.77c0,5.69-3.34,8.29-8.21,8.29-4.4,0-6.95-2.28-8.25-5.02l4.48-2.71Z"/></svg>