<?xml version="1.0" encoding="UTF-8"?><svg id="a" xmlns="http://www.w3.org/2000/svg" viewBox="0 0 100 100"><defs><style>.d{fill:#f7df1e;}.e{fill:#3685c2;}</style></defs><path id="b" class="e" d="m49.59,14.85c-2.87.01-5.6.26-8.01.68-7.1,1.25-8.38,3.88-8.38,8.72v6.39h16.77v2.13h-23.06c-4.87,0-9.14,2.93-10.48,8.5-1.54,6.39-1.61,10.37,0,17.04,1.19,4.96,4.04,8.5,8.91,8.5h5.77v-7.66c0-5.54,4.79-10.42,10.48-10.42h16.75c4.66,0,8.38-3.84,8.38-8.52v-15.97c0-4.54-3.83-7.96-8.38-8.72-2.88-.48-5.87-.7-8.74-.68Zm-9.07,5.14c1.73,0,3.15,1.44,3.15,3.21s-1.41,3.19-3.15,3.19-3.15-1.42-3.15-3.19,1.41-3.21,3.15-3.21Z"/><path id="c" class="d" d="m68.8,32.78v7.45c0,5.77-4.89,10.63-10.48,10.63h-16.75c-4.59,0-8.38,3.93-8.38,8.52v15.97c0,4.54,3.95,7.22,8.38,8.52,5.31,1.56,10.4,1.84,16.75,0,4.22-1.22,8.38-3.68,8.38-8.52v-6.39h-16.75v-2.13h25.14c4.87,0,6.69-3.4,8.38-8.5,1.75-5.25,1.68-10.3,0-17.04-1.2-4.85-3.5-8.5-8.38-8.5h-6.29Zm-9.42,40.44c1.74,0,3.15,1.42,3.15,3.19s-1.41,3.21-3.15,3.21-3.15-1.44-3.15-3.21,1.41-3.19,3.15-3.19Z"/></svg>