<?xml version="1.0" encoding="UTF-8"?><svg id="a" xmlns="http://www.w3.org/2000/svg" viewBox="0 0 100 100"><defs><style>.b{fill:#61d8f9;}</style></defs><circle class="b" cx="50" cy="50" r="8.28"/><path class="b" d="m50,65.25c-20.94,0-37.35-6.71-37.35-15.27s16.41-15.26,37.35-15.26,37.35,6.71,37.35,15.26-16.41,15.27-37.35,15.27Zm0-27.28c-20.1,0-34.1,6.33-34.1,12.02s14.01,12.02,34.1,12.02,34.1-6.33,34.1-12.02-14.01-12.02-34.1-12.02Z"/><path class="b" d="m64.91,83.3c-3.31,0-7.31-1.82-11.66-5.35-5.75-4.68-11.61-11.9-16.47-20.33-10.47-18.14-12.87-35.7-5.46-39.98,7.42-4.29,21.42,6.58,31.89,24.72h0c4.87,8.43,8.2,17.11,9.37,24.43,1.26,7.84-.13,13.37-3.91,15.55-1.12.65-2.38.96-3.77.96Zm-29.83-63.36c-.81,0-1.53.17-2.13.52-4.92,2.85-3.4,18.14,6.64,35.55,4.68,8.1,10.25,15,15.71,19.43,4.97,4.04,9.26,5.53,11.75,4.09,2.49-1.44,3.34-5.9,2.33-12.22-1.11-6.94-4.3-15.22-8.97-23.32h0c-8.82-15.27-19.52-24.05-25.33-24.05Z"/><path class="b" d="m35.09,83.3c-1.38,0-2.65-.32-3.76-.96-3.78-2.18-5.17-7.7-3.91-15.55,1.17-7.32,4.5-16,9.37-24.43,10.47-18.14,24.47-29,31.89-24.72,7.41,4.28,5.01,21.84-5.46,39.98h0c-4.87,8.43-10.72,15.65-16.47,20.33-4.35,3.53-8.35,5.35-11.66,5.35Zm29.83-63.36c-5.81,0-16.51,8.77-25.33,24.05-4.67,8.1-7.86,16.38-8.97,23.32-1.01,6.32-.16,10.78,2.33,12.22,2.49,1.44,6.78-.05,11.75-4.09,5.46-4.43,11.03-11.33,15.71-19.43,10.05-17.41,11.56-32.7,6.64-35.55-.6-.35-1.32-.52-2.13-.52Z"/></svg>