<?xml version="1.0" encoding="UTF-8"?><svg id="a" xmlns="http://www.w3.org/2000/svg" viewBox="0 0 100 100"><defs><style>.b{fill:#f05138;}.c{fill:#fff;}</style></defs><path class="b" d="m79.55,36.53v-1.83c-.06-1.31-.11-2.68-.33-4-.22-1.31-.61-2.57-1.23-3.77-.61-1.2-1.34-2.28-2.29-3.2-.95-.97-2.01-1.71-3.13-2.34-1.17-.63-2.4-1.03-3.68-1.26-1.28-.23-2.57-.34-3.91-.34h-29.97c-.33,0-.67,0-.95.06-.95.06-1.95.11-2.9.29s-1.9.46-2.79.8c-.28.11-.61.29-.89.4-.89.46-1.67,1.03-2.46,1.66-.22.23-.5.46-.73.68-.95.97-1.67,2.05-2.29,3.2-.61,1.2-1,2.45-1.23,3.77-.22,1.31-.28,2.63-.33,4v30.65c.06,1.31.11,2.68.33,4,.22,1.31.61,2.57,1.23,3.77.61,1.2,1.34,2.28,2.29,3.2.95.97,2.01,1.71,3.13,2.34,1.17.63,2.4,1.03,3.68,1.26,1.28.23,2.57.34,3.91.34h29.97c1.28-.06,2.62-.11,3.91-.34s2.51-.63,3.68-1.26,2.23-1.37,3.13-2.34c.95-.97,1.67-2.05,2.29-3.2.61-1.2,1-2.45,1.23-3.77.22-1.31.33-2.63.33-4v-28.77Z"/><path class="c" d="m70.69,56.94c.06-.23.11-.46.17-.68,2.46-9.99-3.52-21.86-13.67-28.08,4.46,6.16,6.42,13.64,4.69,20.15-.17.57-.33,1.14-.56,1.71-.22-.17-.5-.34-.89-.51,0,0-10.1-6.39-21.04-17.64-.28-.29,5.86,8.96,12.78,16.44-3.29-1.88-12.39-8.68-18.19-14.04.73,1.2,1.56,2.4,2.46,3.48,4.8,6.28,11.11,13.98,18.64,19.92-5.3,3.31-12.78,3.6-20.2,0-1.84-.86-3.57-1.94-5.19-3.14,3.13,5.14,7.98,9.59,13.9,12.21,7.03,3.08,14.06,2.91,19.25.06h0s.06,0,.06-.06c.22-.11.45-.29.67-.4,2.51-1.31,7.42-2.63,10.1,2.63.78,1.2,2.18-5.65-2.96-12.04h0Z"/></svg>