<?xml version="1.0" encoding="UTF-8"?><svg id="a" xmlns="http://www.w3.org/2000/svg" viewBox="0 0 100 100"><defs><style>.b{fill:#fff;}</style></defs><path class="b" d="m92.11,36.62c-.07-.3-.3-.54-.6-.62l-18.54-5.34c-.06-.04-.13-.07-.2-.09-.07-.02-.15-.03-.22-.03l-36.57-10.53c-.07-.04-.14-.08-.22-.1-.08-.02-.16-.03-.24-.03l-18.55-5.34c-.29-.08-.61,0-.83.21-.22.21-.31.53-.24.83l9.3,37.63s0,.01,0,.02c0,0,0,.01,0,.02l9.29,37.61c.07.3.3.53.6.62.08.02.16.03.24.03.22,0,.43-.08.6-.24l55.95-53.81c.22-.21.31-.53.24-.83Zm-28.35,25.48l-3.97-16.08,15.93,4.57-11.96,11.51Zm-13.86,13.33l-3.89-15.76,15.6,4.5-11.71,11.26Zm-22.68-21.17l15.63,4.5-11.73,11.3-3.91-15.81Zm-4.69-18.97l15.92,4.57-11.95,11.5-3.97-16.07Zm22.68,21.18l-3.9-15.81,15.64,4.49-11.74,11.32Zm-1.59.73l-15.93-4.59,11.96-11.51,3.97,16.1Zm14.49-10.76l3.97,16.08-15.9-4.58,11.93-11.5Zm-16.3-7.42l11.69-11.25,3.88,15.72-15.57-4.47Zm-1.21-1.22l-3.89-15.77,15.61,4.49-11.71,11.28Zm-1.67.42l-15.64-4.49,11.74-11.32,3.9,15.81Zm5.33,21.59l3.9,15.81-15.64-4.49,11.74-11.32Zm16.03-15.42l11.74-11.32,3.9,15.81-15.64-4.49Zm-1.22-1.21l-3.91-15.83,15.65,4.51-11.75,11.32Zm-25.27-21.98l-11.92,11.49-3.97-16.07,15.89,4.58Zm1.99,67.81l-4.03-16.31,16.16,4.64-12.13,11.67Zm41.88-40.28l-3.96-16.03,15.87,4.57-11.92,11.46Z"/></svg>