<?xml version="1.0" encoding="UTF-8"?><svg id="a" xmlns="http://www.w3.org/2000/svg" viewBox="0 0 100 100"><defs><style>.b{fill:#3178c6;}.c{fill:#fff;fill-rule:evenodd;}</style></defs><rect class="b" x="19.63" y="19.63" width="60.73" height="60.73" rx="5.93" ry="5.93"/><rect class="b" x="19.63" y="19.63" width="60.73" height="60.73" rx="5.93" ry="5.93"/><path class="c" d="m57.23,67.96v5.94c.97.49,2.11.87,3.43,1.11s2.71.37,4.17.37,2.78-.14,4.06-.41c1.28-.27,2.4-.72,3.37-1.35.97-.62,1.73-1.44,2.29-2.45s.84-2.25.84-3.74c0-1.08-.16-2.02-.48-2.83s-.79-1.53-1.39-2.16c-.61-.63-1.33-1.2-2.18-1.7s-1.8-.97-2.87-1.42c-.78-.32-1.48-.63-2.1-.94-.62-.3-1.14-.61-1.58-.93-.43-.32-.77-.65-1-1-.24-.35-.35-.75-.35-1.2,0-.41.11-.78.32-1.1s.51-.61.89-.84c.38-.23.85-.42,1.41-.55.56-.13,1.18-.19,1.86-.19.5,0,1.02.04,1.57.11.55.07,1.1.19,1.66.34.56.15,1.1.35,1.62.58.53.24,1.01.51,1.46.82v-5.55c-.9-.35-1.89-.6-2.96-.77s-2.3-.25-3.69-.25-2.75.15-4.01.45-2.37.78-3.33,1.42c-.96.64-1.72,1.46-2.27,2.46-.56,1-.84,2.19-.84,3.57,0,1.77.51,3.28,1.53,4.53,1.02,1.25,2.57,2.31,4.65,3.17.82.33,1.58.66,2.28.98s1.32.66,1.83,1c.51.35.92.72,1.22,1.13.3.41.45.87.45,1.39,0,.38-.09.74-.28,1.07s-.47.61-.84.85-.85.43-1.41.57c-.56.14-1.22.2-1.98.2-1.29,0-2.56-.23-3.82-.68-1.26-.45-2.43-1.13-3.51-2.03h0Zm-9.98-14.63h7.62v-4.87h-21.23v4.87h7.58v21.7h6.03v-21.7Z"/></svg>